<mxfile host="app.diagrams.net" modified="2024-05-30T08:15:43.388Z" agent="Mozilla/5.0 (Windows NT 10.0; Win64; x64) AppleWebKit/537.36 (KHTML, like Gecko) Chrome/125.0.0.0 Safari/537.36 Edg/125.0.0.0" etag="eE72IpsK0aMzFUrl6dd0" version="24.4.9" type="device">
  <diagram name="Page-1" id="2YBvvXClWsGukQMizWep">
    <mxGraphModel dx="2258" dy="1049" grid="1" gridSize="10" guides="1" tooltips="1" connect="1" arrows="1" fold="1" page="1" pageScale="1" pageWidth="850" pageHeight="1100" math="0" shadow="0">
      <root>
        <mxCell id="0" />
        <mxCell id="1" parent="0" />
        <mxCell id="aM9ryv3xv72pqoxQDRHE-1" value=":STARTUP" style="shape=umlLifeline;perimeter=lifelinePerimeter;whiteSpace=wrap;html=1;container=0;dropTarget=0;collapsible=0;recursiveResize=0;outlineConnect=0;portConstraint=eastwest;newEdgeStyle={&quot;edgeStyle&quot;:&quot;elbowEdgeStyle&quot;,&quot;elbow&quot;:&quot;vertical&quot;,&quot;curved&quot;:0,&quot;rounded&quot;:0};" parent="1" vertex="1">
          <mxGeometry x="160" y="50" width="100" height="1400" as="geometry" />
        </mxCell>
        <mxCell id="aM9ryv3xv72pqoxQDRHE-2" value="" style="html=1;points=[];perimeter=orthogonalPerimeter;outlineConnect=0;targetShapes=umlLifeline;portConstraint=eastwest;newEdgeStyle={&quot;edgeStyle&quot;:&quot;elbowEdgeStyle&quot;,&quot;elbow&quot;:&quot;vertical&quot;,&quot;curved&quot;:0,&quot;rounded&quot;:0};" parent="aM9ryv3xv72pqoxQDRHE-1" vertex="1">
          <mxGeometry x="45" y="70" width="10" height="540" as="geometry" />
        </mxCell>
        <mxCell id="S9DcOW0JlZFPDmaE9m-n-26" value="" style="html=1;points=[[0,0,0,0,5],[0,1,0,0,-5],[1,0,0,0,5],[1,1,0,0,-5]];perimeter=orthogonalPerimeter;outlineConnect=0;targetShapes=umlLifeline;portConstraint=eastwest;newEdgeStyle={&quot;curved&quot;:0,&quot;rounded&quot;:0};" vertex="1" parent="aM9ryv3xv72pqoxQDRHE-1">
          <mxGeometry x="45" y="670" width="10" height="420" as="geometry" />
        </mxCell>
        <mxCell id="S9DcOW0JlZFPDmaE9m-n-53" value="" style="html=1;points=[[0,0,0,0,5],[0,1,0,0,-5],[1,0,0,0,5],[1,1,0,0,-5]];perimeter=orthogonalPerimeter;outlineConnect=0;targetShapes=umlLifeline;portConstraint=eastwest;newEdgeStyle={&quot;curved&quot;:0,&quot;rounded&quot;:0};" vertex="1" parent="aM9ryv3xv72pqoxQDRHE-1">
          <mxGeometry x="45" y="1140" width="10" height="150" as="geometry" />
        </mxCell>
        <mxCell id="aM9ryv3xv72pqoxQDRHE-5" value=":RTOS" style="shape=umlLifeline;perimeter=lifelinePerimeter;whiteSpace=wrap;html=1;container=0;dropTarget=0;collapsible=0;recursiveResize=0;outlineConnect=0;portConstraint=eastwest;newEdgeStyle={&quot;edgeStyle&quot;:&quot;elbowEdgeStyle&quot;,&quot;elbow&quot;:&quot;vertical&quot;,&quot;curved&quot;:0,&quot;rounded&quot;:0};" parent="1" vertex="1">
          <mxGeometry x="440" y="50" width="100" height="1390" as="geometry" />
        </mxCell>
        <mxCell id="aM9ryv3xv72pqoxQDRHE-6" value="" style="html=1;points=[];perimeter=orthogonalPerimeter;outlineConnect=0;targetShapes=umlLifeline;portConstraint=eastwest;newEdgeStyle={&quot;edgeStyle&quot;:&quot;elbowEdgeStyle&quot;,&quot;elbow&quot;:&quot;vertical&quot;,&quot;curved&quot;:0,&quot;rounded&quot;:0};" parent="aM9ryv3xv72pqoxQDRHE-5" vertex="1">
          <mxGeometry x="45" y="80" width="10" height="520" as="geometry" />
        </mxCell>
        <mxCell id="S9DcOW0JlZFPDmaE9m-n-28" value="" style="html=1;points=[[0,0,0,0,5],[0,1,0,0,-5],[1,0,0,0,5],[1,1,0,0,-5]];perimeter=orthogonalPerimeter;outlineConnect=0;targetShapes=umlLifeline;portConstraint=eastwest;newEdgeStyle={&quot;curved&quot;:0,&quot;rounded&quot;:0};" vertex="1" parent="aM9ryv3xv72pqoxQDRHE-5">
          <mxGeometry x="45" y="670" width="10" height="440" as="geometry" />
        </mxCell>
        <mxCell id="S9DcOW0JlZFPDmaE9m-n-48" value="" style="html=1;points=[[0,0,0,0,5],[0,1,0,0,-5],[1,0,0,0,5],[1,1,0,0,-5]];perimeter=orthogonalPerimeter;outlineConnect=0;targetShapes=umlLifeline;portConstraint=eastwest;newEdgeStyle={&quot;curved&quot;:0,&quot;rounded&quot;:0};" vertex="1" parent="aM9ryv3xv72pqoxQDRHE-5">
          <mxGeometry x="45" y="1140" width="10" height="150" as="geometry" />
        </mxCell>
        <mxCell id="S9DcOW0JlZFPDmaE9m-n-57" value="" style="html=1;points=[[0,0,0,0,5],[0,1,0,0,-5],[1,0,0,0,5],[1,1,0,0,-5]];perimeter=orthogonalPerimeter;outlineConnect=0;targetShapes=umlLifeline;portConstraint=eastwest;newEdgeStyle={&quot;curved&quot;:0,&quot;rounded&quot;:0};" vertex="1" parent="aM9ryv3xv72pqoxQDRHE-5">
          <mxGeometry x="55" y="1205" width="10" height="40" as="geometry" />
        </mxCell>
        <mxCell id="S9DcOW0JlZFPDmaE9m-n-58" value="HandleUartTask(&amp;amp;huart2, (uint8_t*)uartBuf, sizeof(uartBuf), 100)" style="html=1;align=left;spacingLeft=2;endArrow=block;rounded=0;edgeStyle=orthogonalEdgeStyle;curved=0;rounded=0;" edge="1" target="S9DcOW0JlZFPDmaE9m-n-57" parent="aM9ryv3xv72pqoxQDRHE-5">
          <mxGeometry relative="1" as="geometry">
            <mxPoint x="60" y="1185" as="sourcePoint" />
            <Array as="points">
              <mxPoint x="90" y="1215" />
            </Array>
          </mxGeometry>
        </mxCell>
        <mxCell id="aM9ryv3xv72pqoxQDRHE-7" value="FrontUltrasonicSensorTask()" style="html=1;verticalAlign=bottom;endArrow=block;edgeStyle=elbowEdgeStyle;elbow=horizontal;curved=0;rounded=0;" parent="1" source="aM9ryv3xv72pqoxQDRHE-2" target="aM9ryv3xv72pqoxQDRHE-5" edge="1">
          <mxGeometry relative="1" as="geometry">
            <mxPoint x="190" y="122.5" as="sourcePoint" />
            <Array as="points">
              <mxPoint x="330" y="130" />
            </Array>
            <mxPoint x="500" y="217.5" as="targetPoint" />
          </mxGeometry>
        </mxCell>
        <mxCell id="S9DcOW0JlZFPDmaE9m-n-3" value=":GPIODriver" style="shape=umlLifeline;perimeter=lifelinePerimeter;whiteSpace=wrap;html=1;container=0;dropTarget=0;collapsible=0;recursiveResize=0;outlineConnect=0;portConstraint=eastwest;newEdgeStyle={&quot;edgeStyle&quot;:&quot;elbowEdgeStyle&quot;,&quot;elbow&quot;:&quot;vertical&quot;,&quot;curved&quot;:0,&quot;rounded&quot;:0};" vertex="1" parent="1">
          <mxGeometry x="820" y="55" width="100" height="1385" as="geometry" />
        </mxCell>
        <mxCell id="S9DcOW0JlZFPDmaE9m-n-6" value="write_gpio_pin(Trigger_GPIO_Port, Trigger_Pin, GPIO_PIN_SET)" style="html=1;verticalAlign=bottom;endArrow=block;curved=0;rounded=0;" edge="1" parent="1" target="S9DcOW0JlZFPDmaE9m-n-3">
          <mxGeometry width="80" relative="1" as="geometry">
            <mxPoint x="490" y="140" as="sourcePoint" />
            <mxPoint x="935" y="140" as="targetPoint" />
          </mxGeometry>
        </mxCell>
        <mxCell id="S9DcOW0JlZFPDmaE9m-n-7" value="write_gpio_pin(Trigger_GPIO_Port, Trigger_Pin, GPIO_PIN_RESET)" style="html=1;verticalAlign=bottom;endArrow=block;curved=0;rounded=0;" edge="1" parent="1" source="aM9ryv3xv72pqoxQDRHE-6" target="S9DcOW0JlZFPDmaE9m-n-3">
          <mxGeometry width="80" relative="1" as="geometry">
            <mxPoint x="500" y="220" as="sourcePoint" />
            <mxPoint x="935" y="220" as="targetPoint" />
            <Array as="points">
              <mxPoint x="540" y="220" />
            </Array>
          </mxGeometry>
        </mxCell>
        <mxCell id="S9DcOW0JlZFPDmaE9m-n-8" value="Set signal to high for 10micros" style="ellipse;whiteSpace=wrap;html=1;" vertex="1" parent="1">
          <mxGeometry x="415" y="150" width="150" height="40" as="geometry" />
        </mxCell>
        <mxCell id="S9DcOW0JlZFPDmaE9m-n-9" value=":TimersDriver" style="shape=umlLifeline;perimeter=lifelinePerimeter;whiteSpace=wrap;html=1;container=0;dropTarget=0;collapsible=0;recursiveResize=0;outlineConnect=0;portConstraint=eastwest;newEdgeStyle={&quot;edgeStyle&quot;:&quot;elbowEdgeStyle&quot;,&quot;elbow&quot;:&quot;vertical&quot;,&quot;curved&quot;:0,&quot;rounded&quot;:0};" vertex="1" parent="1">
          <mxGeometry x="940" y="55" width="100" height="1385" as="geometry" />
        </mxCell>
        <mxCell id="S9DcOW0JlZFPDmaE9m-n-10" value="" style="html=1;points=[];perimeter=orthogonalPerimeter;outlineConnect=0;targetShapes=umlLifeline;portConstraint=eastwest;newEdgeStyle={&quot;edgeStyle&quot;:&quot;elbowEdgeStyle&quot;,&quot;elbow&quot;:&quot;vertical&quot;,&quot;curved&quot;:0,&quot;rounded&quot;:0};" vertex="1" parent="S9DcOW0JlZFPDmaE9m-n-9">
          <mxGeometry x="45" y="210" width="10" height="50" as="geometry" />
        </mxCell>
        <mxCell id="S9DcOW0JlZFPDmaE9m-n-11" value="HAL_TIM_IC_CaptureCallback()" style="html=1;verticalAlign=bottom;endArrow=block;curved=0;rounded=0;" edge="1" parent="1">
          <mxGeometry width="80" relative="1" as="geometry">
            <mxPoint x="995" y="310" as="sourcePoint" />
            <mxPoint x="1109.5" y="310" as="targetPoint" />
          </mxGeometry>
        </mxCell>
        <mxCell id="S9DcOW0JlZFPDmaE9m-n-12" value="start_capture_timer(&amp;amp;htim3, TIM_CHANNEL_1)" style="html=1;verticalAlign=bottom;endArrow=block;curved=0;rounded=0;" edge="1" parent="1" source="aM9ryv3xv72pqoxQDRHE-6" target="S9DcOW0JlZFPDmaE9m-n-9">
          <mxGeometry width="80" relative="1" as="geometry">
            <mxPoint x="500" y="260" as="sourcePoint" />
            <mxPoint x="1074.5" y="260" as="targetPoint" />
            <Array as="points">
              <mxPoint x="1000" y="260" />
            </Array>
          </mxGeometry>
        </mxCell>
        <mxCell id="S9DcOW0JlZFPDmaE9m-n-15" value=":HALDrivers" style="shape=umlLifeline;perimeter=lifelinePerimeter;whiteSpace=wrap;html=1;container=0;dropTarget=0;collapsible=0;recursiveResize=0;outlineConnect=0;portConstraint=eastwest;newEdgeStyle={&quot;edgeStyle&quot;:&quot;elbowEdgeStyle&quot;,&quot;elbow&quot;:&quot;vertical&quot;,&quot;curved&quot;:0,&quot;rounded&quot;:0};" vertex="1" parent="1">
          <mxGeometry x="1060" y="50" width="100" height="1390" as="geometry" />
        </mxCell>
        <mxCell id="S9DcOW0JlZFPDmaE9m-n-18" value="HAL_TIM_ReadCapturedValue(htim, TIM_CHANNEL_1)" style="html=1;align=left;spacingLeft=2;endArrow=block;rounded=0;edgeStyle=orthogonalEdgeStyle;curved=0;rounded=0;" edge="1" target="S9DcOW0JlZFPDmaE9m-n-15" parent="S9DcOW0JlZFPDmaE9m-n-15">
          <mxGeometry x="-1" y="14" relative="1" as="geometry">
            <mxPoint x="50" y="300" as="sourcePoint" />
            <Array as="points">
              <mxPoint x="50" y="300" />
              <mxPoint x="50" y="290" />
              <mxPoint x="110" y="290" />
              <mxPoint x="110" y="340" />
            </Array>
            <mxPoint x="60" y="330" as="targetPoint" />
            <mxPoint x="4" y="10" as="offset" />
          </mxGeometry>
        </mxCell>
        <mxCell id="S9DcOW0JlZFPDmaE9m-n-20" value="Capture the data till the falling edge" style="ellipse;whiteSpace=wrap;html=1;" vertex="1" parent="1">
          <mxGeometry x="1040" y="400" width="140" height="70" as="geometry" />
        </mxCell>
        <mxCell id="S9DcOW0JlZFPDmaE9m-n-21" value="return" style="html=1;verticalAlign=bottom;endArrow=open;dashed=1;endSize=8;curved=0;rounded=0;" edge="1" parent="1">
          <mxGeometry relative="1" as="geometry">
            <mxPoint x="1109.5" y="480" as="sourcePoint" />
            <mxPoint x="489.5" y="480" as="targetPoint" />
            <Array as="points">
              <mxPoint x="660" y="480" />
            </Array>
          </mxGeometry>
        </mxCell>
        <mxCell id="S9DcOW0JlZFPDmaE9m-n-22" value="start_capture_timer(&amp;amp;htim3, TIM_CHANNEL_1)" style="html=1;verticalAlign=bottom;endArrow=block;curved=0;rounded=0;" edge="1" parent="1">
          <mxGeometry width="80" relative="1" as="geometry">
            <mxPoint x="489.5" y="510" as="sourcePoint" />
            <mxPoint x="989.5" y="510" as="targetPoint" />
            <Array as="points">
              <mxPoint x="930" y="510" />
            </Array>
          </mxGeometry>
        </mxCell>
        <mxCell id="S9DcOW0JlZFPDmaE9m-n-23" value="Calculate the distance and save it in the mutex" style="ellipse;whiteSpace=wrap;html=1;" vertex="1" parent="1">
          <mxGeometry x="420" y="520" width="140" height="70" as="geometry" />
        </mxCell>
        <mxCell id="S9DcOW0JlZFPDmaE9m-n-24" value="FrontUltrasonicSensorTask()" style="html=1;verticalAlign=bottom;endArrow=open;dashed=1;endSize=8;curved=0;rounded=0;" edge="1" parent="1">
          <mxGeometry relative="1" as="geometry">
            <mxPoint x="489.5" y="650" as="sourcePoint" />
            <mxPoint x="209.5" y="650" as="targetPoint" />
          </mxGeometry>
        </mxCell>
        <mxCell id="S9DcOW0JlZFPDmaE9m-n-29" value="MotorControlTask()" style="html=1;verticalAlign=bottom;endArrow=block;curved=0;rounded=0;entryX=0;entryY=0;entryDx=0;entryDy=5;entryPerimeter=0;" edge="1" target="S9DcOW0JlZFPDmaE9m-n-28" parent="1" source="S9DcOW0JlZFPDmaE9m-n-26">
          <mxGeometry relative="1" as="geometry">
            <mxPoint x="415" y="725" as="sourcePoint" />
            <mxPoint x="490" y="725" as="targetPoint" />
          </mxGeometry>
        </mxCell>
        <mxCell id="S9DcOW0JlZFPDmaE9m-n-30" value="MotorControlTask()" style="html=1;verticalAlign=bottom;endArrow=open;dashed=1;endSize=8;curved=0;rounded=0;exitX=0;exitY=1;exitDx=0;exitDy=-5;" edge="1" parent="1" target="aM9ryv3xv72pqoxQDRHE-1">
          <mxGeometry relative="1" as="geometry">
            <mxPoint x="415" y="1130" as="targetPoint" />
            <mxPoint x="485" y="1130" as="sourcePoint" />
          </mxGeometry>
        </mxCell>
        <mxCell id="S9DcOW0JlZFPDmaE9m-n-31" value="Get the distance from the mutex" style="ellipse;whiteSpace=wrap;html=1;" vertex="1" parent="1">
          <mxGeometry x="415" y="740" width="150" height="60" as="geometry" />
        </mxCell>
        <mxCell id="S9DcOW0JlZFPDmaE9m-n-33" value="distance &amp;lt; 25cm" style="shape=umlFrame;whiteSpace=wrap;html=1;pointerEvents=0;width=110;height=30;" vertex="1" parent="1">
          <mxGeometry x="340" y="810" width="460" height="160" as="geometry" />
        </mxCell>
        <mxCell id="S9DcOW0JlZFPDmaE9m-n-34" value=":MotorControlService" style="shape=umlLifeline;perimeter=lifelinePerimeter;whiteSpace=wrap;html=1;container=0;dropTarget=0;collapsible=0;recursiveResize=0;outlineConnect=0;portConstraint=eastwest;newEdgeStyle={&quot;edgeStyle&quot;:&quot;elbowEdgeStyle&quot;,&quot;elbow&quot;:&quot;vertical&quot;,&quot;curved&quot;:0,&quot;rounded&quot;:0};" vertex="1" parent="1">
          <mxGeometry x="1330" y="65" width="120" height="1375" as="geometry" />
        </mxCell>
        <mxCell id="S9DcOW0JlZFPDmaE9m-n-35" value="set_turn_values(turn_value, &amp;amp;right_motor_value, &amp;amp;left_motor_value, &amp;amp;direction_left_front, &amp;amp;direction_right_front, &amp;amp;direction_left_rear, &amp;amp;direction_right_rear)" style="html=1;verticalAlign=bottom;endArrow=block;curved=0;rounded=0;" edge="1" parent="1" target="S9DcOW0JlZFPDmaE9m-n-34">
          <mxGeometry width="80" relative="1" as="geometry">
            <mxPoint x="490" y="1000" as="sourcePoint" />
            <mxPoint x="1474.5" y="1000" as="targetPoint" />
            <Array as="points">
              <mxPoint x="1025" y="1000" />
            </Array>
          </mxGeometry>
        </mxCell>
        <mxCell id="S9DcOW0JlZFPDmaE9m-n-37" value="turn_value = GO" style="ellipse;whiteSpace=wrap;html=1;align=center;fontStyle=4;" vertex="1" parent="1">
          <mxGeometry x="440" y="840" width="100" height="40" as="geometry" />
        </mxCell>
        <mxCell id="S9DcOW0JlZFPDmaE9m-n-41" value="" style="line;strokeWidth=1;fillColor=none;align=left;verticalAlign=middle;spacingTop=-1;spacingLeft=3;spacingRight=3;rotatable=0;labelPosition=right;points=[];portConstraint=eastwest;strokeColor=inherit;" vertex="1" parent="1">
          <mxGeometry x="340" y="890" width="460" height="8" as="geometry" />
        </mxCell>
        <mxCell id="S9DcOW0JlZFPDmaE9m-n-42" value="turn_value = TURN_RIGHT" style="ellipse;whiteSpace=wrap;html=1;align=center;fontStyle=4;" vertex="1" parent="1">
          <mxGeometry x="405" y="910" width="170" height="40" as="geometry" />
        </mxCell>
        <mxCell id="S9DcOW0JlZFPDmaE9m-n-43" value="set_direction (GPIO_1, GPIO_Pin_1,&amp;nbsp; GPIO_2,&amp;nbsp; GPIO_Pin_2,&amp;nbsp; direction)" style="html=1;verticalAlign=bottom;endArrow=block;curved=0;rounded=0;" edge="1" parent="1" target="S9DcOW0JlZFPDmaE9m-n-34">
          <mxGeometry width="80" relative="1" as="geometry">
            <mxPoint x="490" y="1099" as="sourcePoint" />
            <mxPoint x="1480" y="1099" as="targetPoint" />
            <Array as="points">
              <mxPoint x="1025.5" y="1099" />
            </Array>
          </mxGeometry>
        </mxCell>
        <mxCell id="S9DcOW0JlZFPDmaE9m-n-45" value="Set direction and PWM pulses for each motor" style="ellipse;whiteSpace=wrap;html=1;" vertex="1" parent="1">
          <mxGeometry x="415" y="1010" width="140" height="70" as="geometry" />
        </mxCell>
        <mxCell id="S9DcOW0JlZFPDmaE9m-n-49" value="UartTask()" style="html=1;verticalAlign=bottom;endArrow=block;curved=0;rounded=0;entryX=0;entryY=0;entryDx=0;entryDy=5;" edge="1" target="S9DcOW0JlZFPDmaE9m-n-48" parent="1" source="aM9ryv3xv72pqoxQDRHE-1">
          <mxGeometry relative="1" as="geometry">
            <mxPoint x="400" y="1195" as="sourcePoint" />
          </mxGeometry>
        </mxCell>
        <mxCell id="S9DcOW0JlZFPDmaE9m-n-50" value="UartTask()" style="html=1;verticalAlign=bottom;endArrow=open;dashed=1;endSize=8;curved=0;rounded=0;exitX=0;exitY=1;exitDx=0;exitDy=-5;" edge="1" source="S9DcOW0JlZFPDmaE9m-n-48" parent="1" target="aM9ryv3xv72pqoxQDRHE-1">
          <mxGeometry relative="1" as="geometry">
            <mxPoint x="400" y="1265" as="targetPoint" />
          </mxGeometry>
        </mxCell>
        <mxCell id="S9DcOW0JlZFPDmaE9m-n-51" value="Job done" style="ellipse;whiteSpace=wrap;html=1;" vertex="1" parent="1">
          <mxGeometry x="150" y="670" width="120" height="40" as="geometry" />
        </mxCell>
        <mxCell id="S9DcOW0JlZFPDmaE9m-n-52" value="Job done" style="ellipse;whiteSpace=wrap;html=1;" vertex="1" parent="1">
          <mxGeometry x="150" y="1150" width="120" height="40" as="geometry" />
        </mxCell>
        <mxCell id="S9DcOW0JlZFPDmaE9m-n-54" value="Job done" style="ellipse;whiteSpace=wrap;html=1;" vertex="1" parent="1">
          <mxGeometry x="150" y="1360" width="120" height="40" as="geometry" />
        </mxCell>
        <mxCell id="S9DcOW0JlZFPDmaE9m-n-56" value="Construct uartBuf" style="ellipse;whiteSpace=wrap;html=1;" vertex="1" parent="1">
          <mxGeometry x="425" y="600" width="125" height="40" as="geometry" />
        </mxCell>
        <mxCell id="S9DcOW0JlZFPDmaE9m-n-60" value="" style="strokeWidth=2;html=1;shape=mxgraph.flowchart.annotation_1;align=left;pointerEvents=1;" vertex="1" parent="1">
          <mxGeometry x="90" y="110" width="120" height="1310" as="geometry" />
        </mxCell>
      </root>
    </mxGraphModel>
  </diagram>
</mxfile>
